<svg xmlns="http://www.w3.org/2000/svg" width="151.378" height="159.835" viewBox="0 0 151.378 159.835">
  <g id="undraw_mobile_inbox_re_ciwq" transform="translate(-124.354 0)">
    <path id="Trazado_74" data-name="Trazado 74" d="M881.564,357.544A105.44,105.44,0,0,0,891.48,381.6c.1.172.2.341.3.512l13.153-4.9c-.057-.165-.119-.351-.185-.553-3.966-11.936-27.826-84.688-25-99.7C879.481,278.183,870.728,318.959,881.564,357.544Z" transform="translate(-737.791 -234.907)" fill="#e6e6e6"/>
    <path id="Trazado_75" data-name="Trazado 75" d="M937.411,579.3c.2.15.409.3.618.442l12.584-3.677c-.147-.134-.319-.293-.517-.471-3.229-2.971-12.819-11.871-22.094-21.293-9.967-10.125-19.573-20.851-20.537-25.467C907.643,529.889,913.286,561.915,937.411,579.3Z" transform="translate(-783.111 -431.666)" fill="#e6e6e6"/>
    <path id="bcf9023f-ac5b-481c-aaa4-352627f2cc6c" d="M688.3,122.689h-.875V98.714a13.875,13.875,0,0,0-13.875-13.875H622.751a13.875,13.875,0,0,0-13.875,13.875V230.241a13.875,13.875,0,0,0,13.875,13.875h50.793a13.875,13.875,0,0,0,13.875-13.875V139.754h.875Z" transform="translate(-454.818 -84.839)" fill="#3f3d56"/>
    <path id="f7950315-d447-41b3-b140-1076b53a001f" d="M687.765,101.332h-6.63a4.923,4.923,0,0,1-4.558,6.783h-29.1a4.923,4.923,0,0,1-4.558-6.783h-6.194a10.362,10.362,0,0,0-10.362,10.362h0V243.027a10.362,10.362,0,0,0,10.362,10.362h51.037a10.362,10.362,0,0,0,10.362-10.362h0V111.694a10.362,10.362,0,0,0-10.362-10.362h0Z" transform="translate(-468.478 -97.723)" fill="#fff"/>
    <circle id="f890d8c3-e731-49cb-a2e5-5c59e9f60352" cx="5.69" cy="5.69" r="5.69" transform="translate(187.327 142.965) rotate(-80.783)" fill="#e6e6e6"/>
    <g id="a1a6c59b-3717-4dad-b370-97c9e621082a" transform="translate(162.307 72.322)">
      <rect id="aadecade-068c-4f25-a9ef-29b7b9ecc005" width="62.919" height="12.422" fill="#e6e6e6"/>
      <path id="be47b05f-620a-4a83-9c0d-c2bf8bc76fef" d="M652.7,431.171h60.237v-9.739H652.7Z" transform="translate(-651.354 -420.09)" fill="#fff"/>
      <path id="a28d2100-c4d0-4925-85de-1e7d52571659" d="M662.379,426.357a2.545,2.545,0,1,1-2.545,2.545A2.545,2.545,0,0,1,662.379,426.357Z" transform="translate(-655.765 -422.772)" fill="#2cd4d9"/>
      <path id="a28d2100-c4d0-4925-85de-1e7d52571659-2" data-name="a28d2100-c4d0-4925-85de-1e7d52571659" d="M662.379,426.357a2.545,2.545,0,1,1-2.545,2.545A2.545,2.545,0,0,1,662.379,426.357Z" transform="translate(-647.765 -422.772)" fill="#2cd4d9"/>
      <path id="a28d2100-c4d0-4925-85de-1e7d52571659-3" data-name="a28d2100-c4d0-4925-85de-1e7d52571659" d="M662.379,426.357a2.545,2.545,0,1,1-2.545,2.545A2.545,2.545,0,0,1,662.379,426.357Z" transform="translate(-639.765 -422.772)" fill="#2cd4d9"/>
      <rect id="bf3352be-1ca2-4e23-bbaf-f2f5ef64af93" width="21.814" height="0.807" transform="translate(30.296 4.679)" fill="#e6e6e6"/>
      <rect id="bb396d43-890f-415a-a911-0c113deb0c88" width="21.814" height="0.807" transform="translate(30.296 6.776)" fill="#e6e6e6"/>
    </g>
    <g id="a1a6c59b-3717-4dad-b370-97c9e621082a-2" data-name="a1a6c59b-3717-4dad-b370-97c9e621082a" transform="translate(162.307 90.322)">
      <rect id="aadecade-068c-4f25-a9ef-29b7b9ecc005-2" data-name="aadecade-068c-4f25-a9ef-29b7b9ecc005" width="62.919" height="12.422" fill="#e6e6e6"/>
      <path id="be47b05f-620a-4a83-9c0d-c2bf8bc76fef-2" data-name="be47b05f-620a-4a83-9c0d-c2bf8bc76fef" d="M652.7,431.171h60.237v-9.739H652.7Z" transform="translate(-651.354 -420.09)" fill="#fff"/>
      <path id="a28d2100-c4d0-4925-85de-1e7d52571659-4" data-name="a28d2100-c4d0-4925-85de-1e7d52571659" d="M662.379,426.357a2.545,2.545,0,1,1-2.545,2.545A2.545,2.545,0,0,1,662.379,426.357Z" transform="translate(-655.765 -422.772)" fill="#2cd4d9"/>
      <path id="a28d2100-c4d0-4925-85de-1e7d52571659-5" data-name="a28d2100-c4d0-4925-85de-1e7d52571659" d="M662.379,426.357a2.545,2.545,0,1,1-2.545,2.545A2.545,2.545,0,0,1,662.379,426.357Z" transform="translate(-647.765 -422.772)" fill="#2cd4d9"/>
      <path id="a28d2100-c4d0-4925-85de-1e7d52571659-6" data-name="a28d2100-c4d0-4925-85de-1e7d52571659" d="M662.379,426.357a2.545,2.545,0,1,1-2.545,2.545A2.545,2.545,0,0,1,662.379,426.357Z" transform="translate(-639.765 -422.772)" fill="#2cd4d9"/>
      <rect id="bf3352be-1ca2-4e23-bbaf-f2f5ef64af93-2" data-name="bf3352be-1ca2-4e23-bbaf-f2f5ef64af93" width="21.814" height="0.807" transform="translate(30.296 4.679)" fill="#e6e6e6"/>
      <rect id="bb396d43-890f-415a-a911-0c113deb0c88-2" data-name="bb396d43-890f-415a-a911-0c113deb0c88" width="21.814" height="0.807" transform="translate(30.296 6.776)" fill="#e6e6e6"/>
    </g>
    <path id="Trazado_88" data-name="Trazado 88" d="M228.037,813.6h-123.4c-.07,0-.126-.1-.126-.219s.056-.219.126-.219h123.4c.07,0,.126.1.126.219S228.107,813.6,228.037,813.6Z" transform="translate(29.99 -653.765)" fill="#cacaca"/>
    <path id="Trazado_107" data-name="Trazado 107" d="M783.952,398.738l7.141-7.769-5.845-4.612-2.887,6.384-13.1,4.328a2.624,2.624,0,1,0,.844,3.777Z" transform="translate(-532.819 -307.651)" fill="#ffb6b6"/>
    <path id="Trazado_108" data-name="Trazado 108" d="M846.8,351.774c1.295,2.887-6.6,11.133-6.6,11.133-2.16,1.747-2.5,6.119-5.18,6.606-7.222,1.313-2.73-.061-4.6.657-1.756.675-.139-5.1-1.313-5.471-.672-.21,3.064-2.626,3.064-2.626s3.367-6.6,5.437-10.027a6.707,6.707,0,0,1,5.543-3.339A4.779,4.779,0,0,1,846.8,351.774Z" transform="translate(-582.578 -278.239)" fill="#e6e6e6"/>
    <path id="Trazado_109" data-name="Trazado 109" d="M700.566,553.443h-3.118l-1.483-12.025h4.6Z" transform="translate(-431.91 -397.26)" fill="#ffb6b6"/>
    <path id="Trazado_110" data-name="Trazado 110" d="M897.362,730.742l-3.326-1.351-.1-.04-1.837,1.391a3.911,3.911,0,0,0-3.908,3.742c-.005.055-.005.113-.005.171v.128H898.24v-4.041Z" transform="translate(-628.79 -575.578)" fill="#2f2e41"/>
    <path id="Trazado_111" data-name="Trazado 111" d="M653.891,542.62l-2.941,1.035L645.56,532.8l4.34-1.527Z" transform="translate(-392.537 -389.339)" fill="#ffb6b6"/>
    <path id="Trazado_112" data-name="Trazado 112" d="M868.179,721.8l-3.586-.17-.106-.005-1.271,1.922a3.911,3.911,0,0,0-2.444,4.827c.014.054.033.109.052.163l.043.121,9.482-3.336-1.341-3.812Z" transform="translate(-607.241 -569.453)" fill="#2f2e41"/>
    <path id="Trazado_113" data-name="Trazado 113" d="M848.718,486.749c2.852-.111-.681,22.618-.681,22.618s1.034,19.955.814,21a22.683,22.683,0,0,0-.028,3.872c-.559-1.017-6.324-.249-6.324-.249l-.784-20.224-4-16.2-5.551,10.862,5.321,16.673s2.155,1.994,1.926,2.782-5.873,2.565-6.91,2.605-.569-1.276-.619-2.573-4.931-13.312-6.647-17.4-.382-9.853.494-14.042,5.486-12.05,5.486-12.05C836.932,477.966,845.866,486.86,848.718,486.749Z" transform="translate(-578.961 -382.415)" fill="#2f2e41"/>
    <circle id="Elipse_17" data-name="Elipse 17" cx="5.44" cy="5.44" r="5.44" transform="translate(256.335 55.691)" fill="#ffb6b6"/>
    <path id="Trazado_114" data-name="Trazado 114" d="M857.545,337.9a5.615,5.615,0,0,0-2.275,3.28,31.076,31.076,0,0,0-1.336,7.426l-1.548,15.036-2.988,7.4c6.39-.555,20.559,2.049,20.559,2.049s.526-.175,0-.7-1.039-.06-.513-.586.164.06-.012-.466,0-.176.176-.351-1.359-1.755-1.359-1.755l1.4-9.222,1.755-18.6c-2.106-2.632-6.341-4.184-6.341-4.184l-1.094-1.97-5.471.438Z" transform="translate(-598.489 -267.731)" fill="#e6e6e6"/>
    <path id="Trazado_115" data-name="Trazado 115" d="M925.749,413.955,924.4,406l-4.7.851.413,6.961L918.057,428.3a2.624,2.624,0,1,0,3.429,1.794Z" transform="translate(-650.769 -322.993)" fill="#ffb6b6"/>
    <path id="Trazado_116" data-name="Trazado 116" d="M919.806,356.375c3.04.875,4.238,12.231,4.238,12.231,1.377,5.48-1.229,7.788-1.89,7.764-1.88-.068-2.921-1.677-3.96-1.018-.594.377-.705-3.958-.705-3.958a62.241,62.241,0,0,1-3.41-7.826,6.707,6.707,0,0,1,1.029-6.389A4.779,4.779,0,0,1,919.806,356.375Z" transform="translate(-648.707 -284.033)" fill="#e6e6e6"/>
    <path id="Trazado_117" data-name="Trazado 117" d="M881.331,279.289a5.313,5.313,0,0,0-.737-2.916,2.43,2.43,0,0,0-2.558-1.059,1.063,1.063,0,0,0-.53-.98,2.794,2.794,0,0,0-1.215-.306,10.868,10.868,0,0,0-3.037,0,3.7,3.7,0,0,0-2.54,1.6l-.011.025-.1.476a.452.452,0,0,1-.224.3.444.444,0,0,1-.377.027.41.41,0,0,0-.549.444l.027.19-.284-.054a.408.408,0,0,0-.46.546l.079.216a.438.438,0,0,0-.313.138.4.4,0,0,0-.054.469,3.723,3.723,0,0,0,1.313,1.32,3.094,3.094,0,0,0,.782.335q.086.024.177.043a18.436,18.436,0,0,0,6.681.2,3.784,3.784,0,0,0-.148,1.352,1.42,1.42,0,0,0,.853,1.2,1.792,1.792,0,0,0,.311.075,1.92,1.92,0,0,1,.3.073.87.87,0,0,1,.254,1.488s.469.388.528.369a1.2,1.2,0,0,0,.551-.49A8.461,8.461,0,0,0,881.331,279.289Z" transform="translate(-613.331 -219.82)" fill="#2f2e41"/>
    <circle id="Elipse_22" data-name="Elipse 22" cx="15.947" cy="15.947" r="15.947" transform="translate(177.819 27.678)" fill="#4e31c0"/>
    <path id="Trazado_139" data-name="Trazado 139" d="M665.129,540.8V537.75a4.418,4.418,0,0,0-8.837,0V540.8A2.3,2.3,0,0,0,654.1,543.1v7.211h13.225V543.1A2.3,2.3,0,0,0,665.129,540.8Zm-4.418-5.914a2.866,2.866,0,0,1,2.862,2.863V540.8h-5.725V537.75A2.866,2.866,0,0,1,660.71,534.887Z" transform="translate(-466.944 -498.194)" fill="#fff"/>
    <path id="Trazado_140" data-name="Trazado 140" d="M679.7,576.665a1.189,1.189,0,1,0-1.857.982v2.584h1.337v-2.584a1.187,1.187,0,0,0,.52-.982Z" transform="translate(-484.747 -530.497)" fill="#4e31c0"/>
  </g>
</svg>
