<svg xmlns="http://www.w3.org/2000/svg" width="204.829" height="136.123" viewBox="0 0 204.829 136.123">
  <g id="undraw_forgot_password_re_hxwm_2_" data-name="undraw_forgot_password_re_hxwm (2)" transform="translate(0 0)">
    <path id="Trazado_21" data-name="Trazado 21" d="M435.237,420.443c7.02-12.348,20.409-21.829,34.584-20.916a65.443,65.443,0,0,0-17.211,41.5c-.233,5.952.128,12.6-3.824,17.054-2.459,2.773-6.218,4.116-9.914,4.4a43.445,43.445,0,0,1-11.038-1.051l-.885.272C426.612,447.5,428.217,432.791,435.237,420.443Z" transform="translate(-361.764 -342.104)" fill="#f0f0f0"/>
    <path id="Trazado_22" data-name="Trazado 22" d="M469.817,398.855a55.937,55.937,0,0,0-24.906,23.751,24.089,24.089,0,0,0-2.637,7.072,13.816,13.816,0,0,0,.719,7.235c.779,2.165,1.826,4.29,2.065,6.606a8.459,8.459,0,0,1-2.264,6.537,21.978,21.978,0,0,1-7.282,4.844c-2.937,1.391-6.01,2.79-8.091,5.387-.252.315-.726-.095-.474-.409,3.62-4.518,9.815-5.368,14.112-9.007a8.567,8.567,0,0,0,3.415-6.721c-.083-2.37-1.161-4.561-1.968-6.747a14.742,14.742,0,0,1-.966-7.048,22.268,22.268,0,0,1,2.355-7.147,54.266,54.266,0,0,1,9.979-13.715,56.927,56.927,0,0,1,15.74-11.231c.362-.174.562.419.2.592Z" transform="translate(-361.74 -341.134)" fill="#fff"/>
    <path id="Trazado_23" data-name="Trazado 23" d="M505.563,456.35a8.392,8.392,0,0,1-2.532-10.568c.183-.359.749-.091.566.268a7.771,7.771,0,0,0,2.376,9.825c.326.236-.085.709-.409.474Z" transform="translate(-420.785 -378.314)" fill="#fff"/>
    <path id="Trazado_24" data-name="Trazado 24" d="M498.213,551.333a16.175,16.175,0,0,0,10.241-5.838c.253-.314.727.1.474.409a16.825,16.825,0,0,1-10.669,6.053c-.4.057-.443-.567-.046-.624Z" transform="translate(-417.499 -456.6)" fill="#fff"/>
    <path id="Trazado_25" data-name="Trazado 25" d="M573.036,432.41a4.75,4.75,0,0,0,4.246,1.514c.4-.062.442.563.046.624a5.323,5.323,0,0,1-4.7-1.664.323.323,0,0,1-.032-.441A.315.315,0,0,1,573.036,432.41Z" transform="translate(-476.025 -367.894)" fill="#fff"/>
    <path id="Trazado_26" data-name="Trazado 26" d="M496.031,552.3c-.248.046-.5.092-.746.143a62.558,62.558,0,0,0-9.781,2.7c-.247.086-.5.177-.741.27a65.951,65.951,0,0,0-20.742,12.623,64.048,64.048,0,0,0-6.718,7.04c-2.841,3.472-5.646,7.462-9.359,9.726a10.99,10.99,0,0,1-1.2.648l-21.39-8.872c-.038-.045-.079-.084-.118-.129l-.87-.315c.1-.137.2-.277.3-.414.056-.08.117-.158.173-.237.039-.052.078-.1.11-.155.013-.018.026-.035.037-.048.032-.05.067-.092.1-.137q.866-1.177,1.751-2.345s0,0,.009-.008a94.169,94.169,0,0,1,15.292-16.182c.173-.14.347-.285.529-.421a61.107,61.107,0,0,1,8.261-5.588,54.047,54.047,0,0,1,4.9-2.423,44.931,44.931,0,0,1,13.612-3.472c9.352-.868,18.878,1.264,26.05,7.139C495.671,552,495.85,552.148,496.031,552.3Z" transform="translate(-359.773 -455.926)" fill="#f0f0f0"/>
    <path id="Trazado_27" data-name="Trazado 27" d="M496.955,575.638a55.936,55.936,0,0,0-34.185,3.969,24.087,24.087,0,0,0-6.363,4.059,13.815,13.815,0,0,0-3.782,6.21c-.682,2.2-1.125,4.524-2.329,6.518a8.459,8.459,0,0,1-5.744,3.856,21.979,21.979,0,0,1-8.731-.516c-3.183-.657-6.479-1.391-9.7-.57-.391.1-.522-.513-.132-.612,5.61-1.428,11.069,1.624,16.691,1.3a8.567,8.567,0,0,0,6.773-3.31c1.36-1.942,1.819-4.341,2.49-6.572a14.743,14.743,0,0,1,3.472-6.21,22.268,22.268,0,0,1,6.183-4.289,54.268,54.268,0,0,1,16.225-4.942,56.928,56.928,0,0,1,19.329.51c.394.079.2.673-.195.6Z" transform="translate(-360.857 -479.01)" fill="#fff"/>
    <path id="Trazado_28" data-name="Trazado 28" d="M611.92,555.58a8.392,8.392,0,0,1,4.34-9.962c.362-.176.653.379.29.555a7.771,7.771,0,0,0-4.019,9.275C612.651,555.833,612.038,555.963,611.92,555.58Z" transform="translate(-506.657 -456.758)" fill="#fff"/>
    <path id="Trazado_29" data-name="Trazado 29" d="M549.7,642.4a16.175,16.175,0,0,0,11.692,1.505c.391-.1.523.514.132.612a16.824,16.824,0,0,1-12.163-1.591C549.006,642.731,549.347,642.206,549.7,642.4Z" transform="translate(-457.732 -532.694)" fill="#fff"/>
    <path id="Trazado_30" data-name="Trazado 30" d="M694.147,575.176a4.75,4.75,0,0,0,2.479,3.765c.356.19.014.715-.339.526a5.323,5.323,0,0,1-2.751-4.159.324.324,0,0,1,.24-.372.314.314,0,0,1,.372.24Z" transform="translate(-570.975 -479.784)" fill="#fff"/>
    <path id="Trazado_31" data-name="Trazado 31" d="M219.894,513.02c-3-14.484-6.74-19.314-6.74-19.314l-1.431-1.109L210,491.26l.008-.172-.408-.139-.1-.074-.157-.121-.025.027-.053.055-7.785-2.646-9.876-3.355-4.573-5.944a7.91,7.91,0,0,0-6.328-3.086l-14.606.108a7.91,7.91,0,0,0-5.321,2.111l-9.6,8.9-14.959,7.144-.025-.025-.157.112-2.311,1.105.1.5-1.431,1.032s-3.745,4.493-6.74,17.971c-.762,3.429-1.137,10.786-1.273,19.851a3.46,3.46,0,0,0,3.459,3.511h89.87a3.461,3.461,0,0,0,3.459-3.508C221.038,524.755,220.663,516.738,219.894,513.02Z" transform="translate(-124.382 -402.004)" fill="#4e31c0"/>
    <path id="Trazado_32" data-name="Trazado 32" d="M572.838,191.732a11.72,11.72,0,1,0,0,23.441h87.346a11.72,11.72,0,1,0,0-23.441Z" transform="translate(-467.075 -179.1)" fill="#e5e5e5"/>
    <path id="Trazado_33" data-name="Trazado 33" d="M581.481,202.747a9.349,9.349,0,0,0,0,18.7h87.346a9.349,9.349,0,0,0,0-18.7Z" transform="translate(-475.719 -187.744)" fill="#fff"/>
    <circle id="ab6171fa-7d69-4734-b81c-8dff60f9761b" cx="19.135" cy="19.135" r="19.135" transform="translate(32.183 30.044)" fill="#ffb6b6"/>
    <path id="Trazado_34" data-name="Trazado 34" d="M339.081,444q-.123-.27-.245-.542c.031,0,.062.006.094.006Z" transform="translate(-292.658 -376.622)" fill="#2f2e41"/>
    <path id="Trazado_35" data-name="Trazado 35" d="M244.047,243.589a5.326,5.326,0,0,1,3.336-1.442c1.237.04,2.492,1.157,2.236,2.369a19.663,19.663,0,0,1,23.664-8.873c3.075,1.085,6.091,3.256,6.8,6.439a5.8,5.8,0,0,0,.731,2.377,2.713,2.713,0,0,0,2.888.732l.03-.009a.9.9,0,0,1,1.092,1.276l-.87,1.623a6.973,6.973,0,0,0,3.322-.071.9.9,0,0,1,.959,1.406,15.745,15.745,0,0,1-12.554,6.453c-3.477-.021-6.989-1.219-10.373-.42a9.01,9.01,0,0,0-6.06,12.648,2.938,2.938,0,0,0-4.112.247,5.64,5.64,0,0,0-1.231,4.315,20.023,20.023,0,0,0,2.056,6.721,20.092,20.092,0,0,1-11.91-35.791Z" transform="translate(-212.395 -212.674)" fill="#2f2e41"/>
    <path id="Trazado_36" data-name="Trazado 36" d="M87.464,495.253l5.367,29.2,3.22.28Z" transform="translate(-68.63 -388.611)" opacity="0.2"/>
    <path id="Trazado_37" data-name="Trazado 37" d="M330.715,485.026l-5.367,31.381-3.22.3Z" transform="translate(-252.764 -380.586)" opacity="0.2"/>
    <path id="Trazado_38" data-name="Trazado 38" d="M253.324,154.157a1.908,1.908,0,0,1-2.553-1.12,1.937,1.937,0,0,1,1.015-2.643,2.035,2.035,0,0,1,1.538,3.763Zm-1.971-5.918-.818.342a.883.883,0,0,1-1.121-.411l-.04-.079a7.157,7.157,0,0,1-.3-5.732c.633-1.987.9-3.384.367-4.65-.611-1.464-1.916-1.922-3.581-1.258a3.042,3.042,0,0,0-1.359.769,1.166,1.166,0,0,1-.844.343,1.127,1.127,0,0,1-.807-.354,1.151,1.151,0,0,1-.008-1.571,8.944,8.944,0,0,1,3.024-2.077c3.576-1.493,5.376.711,6.2,2.684.806,1.93.353,3.72-.376,6.039a5.994,5.994,0,0,0,.118,4.774.879.879,0,0,1-.458,1.182Z" transform="translate(-217.095 -133.069)" fill="#2cd4d9"/>
    <path id="Trazado_39" data-name="Trazado 39" d="M640.3,269.071H622.917a.419.419,0,0,1,0-.837H640.3a.419.419,0,0,1,0,.837Z" transform="translate(-515.239 -239.129)" fill="#2cd4d9"/>
    <path id="Trazado_40" data-name="Trazado 40" d="M742.676,269.719H725.3a.419.419,0,0,1,0-.837h17.379a.419.419,0,1,1,0,.837Z" transform="translate(-595.574 -239.638)" fill="#2cd4d9"/>
    <path id="Trazado_41" data-name="Trazado 41" d="M845.058,270.367H827.68a.419.419,0,1,1,0-.837h17.378a.419.419,0,1,1,0,.837Z" transform="translate(-675.91 -240.146)" fill="#2cd4d9"/>
    <path id="Trazado_42" data-name="Trazado 42" d="M947.436,271.015H930.058a.419.419,0,0,1,0-.837h17.379a.419.419,0,1,1,0,.837Z" transform="translate(-756.244 -240.655)" fill="#2cd4d9"/>
    <circle id="Elipse_2" data-name="Elipse 2" cx="3.23" cy="3.23" r="3.23" transform="translate(113.099 19.63)" fill="#2cd4d9"/>
    <circle id="Elipse_3" data-name="Elipse 3" cx="3.23" cy="3.23" r="3.23" transform="translate(135.278 19.63)" fill="#2cd4d9"/>
    <circle id="Elipse_4" data-name="Elipse 4" cx="3.23" cy="3.23" r="3.23" transform="translate(157.456 19.63)" fill="#2cd4d9"/>
    <circle id="Elipse_5" data-name="Elipse 5" cx="3.23" cy="3.23" r="3.23" transform="translate(179.635 19.63)" fill="#2cd4d9"/>
  </g>
</svg>
