<svg xmlns="http://www.w3.org/2000/svg" width="170.865" height="149.539" viewBox="0 0 170.865 149.539">
  <g id="undraw_message_sent_re_q2kl" transform="translate(0.007)">
    <path id="Trazado_43" data-name="Trazado 43" d="M270.83,300.027l-8.239-4.64a30.508,30.508,0,0,1,3.212-14.323c1.9,8.621,11.9,12.723,16.508,20.25a18.351,18.351,0,0,1,1.49,15.836l.542,6.684A30.75,30.75,0,0,1,265.036,306.8a29.7,29.7,0,0,1-2.061-7.161C266.817,300.046,270.83,300.027,270.83,300.027Z" transform="translate(-262.591 -249.068)" fill="#f2f2f2"/>
    <path id="Trazado_44" data-name="Trazado 44" d="M852.368,666.228l.253-5.68a18.344,18.344,0,0,1,8.557-2.166c-4.11,3.36-3.6,9.837-6.383,14.356a11.035,11.035,0,0,1-8.092,5.1l-3.439,2.106a18.491,18.491,0,0,1,3.9-14.984,17.861,17.861,0,0,1,3.283-3.05C851.268,664.08,852.368,666.228,852.368,666.228Z" transform="translate(-696.026 -530.85)" fill="#f2f2f2"/>
    <path id="Trazado_45" data-name="Trazado 45" d="M568.934,541.86h-3.114l-1.481-12.012h4.6Z" transform="translate(-421.453 -395.691)" fill="#ffb6b6"/>
    <path id="Trazado_46" data-name="Trazado 46" d="M818.6,727.9H808.558v-.127a3.908,3.908,0,0,1,3.908-3.908h0l1.834-1.392,3.422,1.392h.877Z" transform="translate(-670.325 -578.717)" fill="#2f2e41"/>
    <path id="Trazado_47" data-name="Trazado 47" d="M511.794,541.86h-3.114L507.2,529.848h4.6Z" transform="translate(-378.781 -395.691)" fill="#ffb6b6"/>
    <path id="Trazado_48" data-name="Trazado 48" d="M761.459,727.9H751.418v-.127a3.908,3.908,0,0,1,3.908-3.908h0l1.834-1.392,3.422,1.392h.877Z" transform="translate(-627.653 -578.717)" fill="#2f2e41"/>
    <path id="Trazado_49" data-name="Trazado 49" d="M767.712,472.631l20.256.506c3.847,2.09,3.905,6.612,2.645,11.982,0,0,.426,3.191-.426,4.042s-1.277.851-.851,2.34-1.823,3.922-1.55,4.2a11.008,11.008,0,0,1,.911,1.762l-2.128,12.128s-1.489,21.063-1.915,21.489-.851,0-.426,1.064.851.638.426,1.064a15.653,15.653,0,0,0-1.064,1.277h-5.144s-.388-2.128-.388-2.34-.426-1.489-.426-1.7.376-.589.376-.589a7,7,0,0,0,.262-1.326c0-.426,1.277-16.808,1.277-16.808L777,490.438l-6.17,20.851s0,18.3-.426,18.723-.426.213-.213,1.064,1.064.638.426,1.277-.851-.425-.638.638l.213,1.064-6.383.091s-.851-1.793-.426-2.432.4-.464-.119-1.509-.732-1.257-.519-1.47.213-1.344.213-1.344l1.064-20.357s.213-21.489.213-22.127a2.121,2.121,0,0,0-.177-.957v-.866l.815-3.07Z" transform="translate(-636.048 -392.131)" fill="#2f2e41"/>
    <circle id="Elipse_6" data-name="Elipse 6" cx="6.294" cy="6.294" r="6.294" transform="translate(137.539 25.793)" fill="#ffb6b6"/>
    <path id="Trazado_50" data-name="Trazado 50" d="M786.508,313.69a6.5,6.5,0,0,0-2.633,3.794,35.958,35.958,0,0,0-1.545,8.591l-.492,8.729-6.091,18.587c5.279,4.466,25.12,1.015,25.12,1.015s.609-.2,0-.812-1.2-.069-.593-.679.189.069-.014-.54,0-.2.2-.406-1.572-2.03-1.572-2.03l1.624-10.669,2.03-21.52c-2.436-3.045-7.336-4.84-7.336-4.84l-1.266-2.279-6.33.506Z" transform="translate(-645.822 -271.149)" fill="#e6e6e6"/>
    <path id="Trazado_51" data-name="Trazado 51" d="M808.137,251.371a2.975,2.975,0,0,1,.722.095,10.274,10.274,0,0,0,1.413.237,6.546,6.546,0,0,1,5.861,5.552c.366-.319,1.2-.905,1.88-.36h0c.01.009.016.013.04,0,.453-.215,1.257-2.86,1.281-5.189.013-1.236-.182-2.814-1.181-3.314l-.053-.026-.014-.057c-.067-.278-.813-.753-2.11-1.122-2.357-.671-5.87-1.979-7.849-.054-.15.649-.637,2.037-1.129,2.195-.545.174-1.016.325-1.09.993a20.5,20.5,0,0,0,.013,2.856,2.917,2.917,0,0,1,1.036-1.456A2.054,2.054,0,0,1,808.137,251.371Z" transform="translate(-668.314 -222.977)" fill="#2f2e41"/>
    <path id="Trazado_52" data-name="Trazado 52" d="M706.3,364.461l10.281-6.584-5.178-6.883-5.113,6.289-15.931.977a3.036,3.036,0,1,0-.17,4.474Z" transform="translate(-578.193 -301.292)" fill="#ffb6b6"/>
    <path id="Trazado_53" data-name="Trazado 53" d="M786.565,328.037c.6,3.611-10.671,10.507-10.671,10.507,0-.848-6.725,5.551-7.029,4.848-.863-2-1.469-6.73-2.675-7.487-.689-.433,4.152-4.5,4.152-4.5s2.534-2.553,5.86-5.774a7.759,7.759,0,0,1,7.186-2.1A5.529,5.529,0,0,1,786.565,328.037Z" transform="translate(-638.634 -280.642)" fill="#e6e6e6"/>
    <path id="Trazado_54" data-name="Trazado 54" d="M890.517,381.1l-6.8-10.139-6.772,5.323,6.4,4.979,1.314,15.907a3.036,3.036,0,1,0,4.477.075Z" transform="translate(-721.396 -316.207)" fill="#ffb6b6"/>
    <path id="Trazado_55" data-name="Trazado 55" d="M853.061,333.969c3.6-.673,10.73,10.446,10.73,10.446-.847.018,5.692,6.606,5,6.925-1.979.9-6.7,1.612-7.429,2.833-.418.7-4.589-4.056-4.589-4.056s-2.606-2.48-5.9-5.737a7.759,7.759,0,0,1-2.252-7.14A5.529,5.529,0,0,1,853.061,333.969Z" transform="translate(-700.13 -288.557)" fill="#e6e6e6"/>
    <path id="Trazado_56" data-name="Trazado 56" d="M726.311,743.22a.3.3,0,0,1-.3.3H655.04a.3.3,0,1,1,0-.6h70.969a.3.3,0,0,1,.3.3Z" transform="translate(-555.453 -593.983)" fill="#ccc"/>
    <path id="Trazado_57" data-name="Trazado 57" d="M408.744,383.493H322.613a5.081,5.081,0,0,0-5.076,5.076v53.625a5.081,5.081,0,0,0,5.076,5.076h86.131a5.081,5.081,0,0,0,5.076-5.076V388.569A5.081,5.081,0,0,0,408.744,383.493Z" transform="translate(-303.63 -325.563)" fill="#4e31c0"/>
    <path id="Trazado_58" data-name="Trazado 58" d="M408.744,383.493H322.613a5.081,5.081,0,0,0-5.076,5.076v53.625a5.081,5.081,0,0,0,5.076,5.076h86.131a5.081,5.081,0,0,0,5.076-5.076V388.569A5.081,5.081,0,0,0,408.744,383.493Zm1.666,38.519A20.865,20.865,0,0,1,389.9,442.8c-8.74.114,4.835.158-5.705.158-24.1,0-49.235-.23-58.612-.38a4.728,4.728,0,0,1-4.631-4.709V388.572a1.671,1.671,0,0,1,1.665-1.669H408.74a1.671,1.671,0,0,1,1.669,1.665Z" transform="translate(-303.63 -325.563)" fill="#3f3d56"/>
    <path id="Trazado_59" data-name="Trazado 59" d="M404.132,261.538H338.51a2.82,2.82,0,0,0-2.651,1.87l-10.135,28.434a2.815,2.815,0,0,0,2.647,3.76l88.011.156h0a2.815,2.815,0,0,0,2.587-3.923l-.153.066.153-.066L406.72,263.244a2.811,2.811,0,0,0-2.587-1.706Z" transform="translate(-309.622 -234.487)" fill="#3f3d56"/>
    <path id="Trazado_60" data-name="Trazado 60" d="M419.2,375.327a2.822,2.822,0,0,1-.228,1.109L406.72,398.444a2.822,2.822,0,0,1-2.588,1.7H338.511a2.822,2.822,0,0,1-2.654-1.869l-10.133-21.851a2.813,2.813,0,0,1,1.707-3.6,2.769,2.769,0,0,1,.939-.165l10.751-.02,4.388-.008,57.74-.1,4.391-.008,10.743-.02h0a2.816,2.816,0,0,1,2.816,2.815Z" transform="translate(-309.622 -317.362)" fill="#3f3d56"/>
    <path id="Trazado_61" data-name="Trazado 61" d="M356.135,542.358c1.3,0,19.171,1.092,19.171,2.393s-17.869,2.319-19.171,2.319a2.356,2.356,0,0,1,0-4.712Z" transform="translate(-330.695 -444.203)" fill="#3f3d56"/>
    <path id="Trazado_62" data-name="Trazado 62" d="M440.044,193.221H384.712a5.6,5.6,0,0,0-5.593,5.593v67.44H444.13a2.779,2.779,0,0,0,1.507-.438v-67a5.6,5.6,0,0,0-5.593-5.593Z" transform="translate(-349.62 -183.468)" fill="#e6e6e6"/>
    <path id="Trazado_63" data-name="Trazado 63" d="M431.867,211.131H401.543a5.1,5.1,0,0,0-5.094,5.092v63.406h57.74V233.453A22.348,22.348,0,0,0,431.867,211.131Z" transform="translate(-362.562 -196.843)" fill="#fff"/>
    <path id="Trazado_64" data-name="Trazado 64" d="M469.706,459.421H431.64a1.241,1.241,0,0,0,0,2.481h38.066a1.241,1.241,0,1,0,0-2.481Z" transform="translate(-387.915 -382.266)" fill="#e4e4e4"/>
    <path id="Trazado_65" data-name="Trazado 65" d="M469.7,440.041H431.636a1.242,1.242,0,1,0,0,2.484H469.7a1.242,1.242,0,0,0,0-2.484Z" transform="translate(-387.912 -367.793)" fill="#e4e4e4"/>
    <path id="Trazado_66" data-name="Trazado 66" d="M448.14,420.671h-16.5a1.241,1.241,0,0,0,0,2.481h16.5a1.241,1.241,0,0,0,0-2.481Z" transform="translate(-387.915 -353.327)" fill="#e4e4e4"/>
    <path id="Trazado_67" data-name="Trazado 67" d="M469.7,380.091H431.636a1.242,1.242,0,0,0,0,2.484H469.7a1.242,1.242,0,0,0,0-2.484Z" transform="translate(-387.912 -323.022)" fill="#e4e4e4"/>
    <path id="Trazado_68" data-name="Trazado 68" d="M469.706,360.721H431.64a1.241,1.241,0,0,0,0,2.481h38.066a1.241,1.241,0,1,0,0-2.481Z" transform="translate(-387.915 -308.557)" fill="#e4e4e4"/>
    <path id="Trazado_69" data-name="Trazado 69" d="M448.136,341.341h-16.5a1.242,1.242,0,0,0,0,2.484h16.5a1.242,1.242,0,0,0,0-2.484Z" transform="translate(-387.911 -294.084)" fill="#e4e4e4"/>
    <path id="Trazado_70" data-name="Trazado 70" d="M469.7,300.761H431.636a1.242,1.242,0,1,0,0,2.484H469.7a1.242,1.242,0,0,0,0-2.484Z" transform="translate(-387.912 -263.779)" fill="#2cd4d9"/>
    <path id="Trazado_71" data-name="Trazado 71" d="M469.7,281.391H431.636a1.242,1.242,0,1,0,0,2.484H469.7a1.242,1.242,0,0,0,0-2.484Z" transform="translate(-387.912 -249.313)" fill="#2cd4d9"/>
    <path id="Trazado_72" data-name="Trazado 72" d="M448.136,262.011h-16.5a1.242,1.242,0,0,0,0,2.484h16.5a1.242,1.242,0,0,0,0-2.484Z" transform="translate(-387.911 -234.84)" fill="#2cd4d9"/>
    <circle id="Elipse_7" data-name="Elipse 7" cx="9.663" cy="9.663" r="9.663" transform="translate(84.28 0)" fill="#2cd4d9"/>
    <path id="Trazado_73" data-name="Trazado 73" d="M617.485,183.058a1.075,1.075,0,0,1-.86-.43l-2.636-3.515a1.075,1.075,0,0,1,1.72-1.29l1.725,2.3,4.43-6.644a1.075,1.075,0,0,1,1.789,1.192l-5.272,7.909a1.075,1.075,0,0,1-.865.478Z" transform="translate(-524.86 -168.367)" fill="#fff"/>
  </g>
</svg>
